<?xml version="1.0" encoding="utf-8"?>
<!-- Generator: Adobe Illustrator 16.0.0, SVG Export Plug-In . SVG Version: 6.00 Build 0)  -->
<!DOCTYPE svg PUBLIC "-//W3C//DTD SVG 1.1//EN" "http://www.w3.org/Graphics/SVG/1.1/DTD/svg11.dtd">
<svg version="1.1" id="Livello_1" xmlns="http://www.w3.org/2000/svg" xmlns:xlink="http://www.w3.org/1999/xlink" x="0px" y="0px"
	 width="800px" height="800px" viewBox="-250.947 -250.41 800 800" enable-background="new -250.947 -250.41 800 800"
	 xml:space="preserve">
<g id="Layer_1">
	<g>
		<g>
			<defs>
				<rect id="SVGID_1_" x="-250.962" y="-250.976" width="800" height="799.937"/>
			</defs>
			<clipPath id="SVGID_2_">
				<use xlink:href="#SVGID_1_"  overflow="visible"/>
			</clipPath>
			<rect x="-250.931" y="-251.066" clip-path="url(#SVGID_2_)" fill="none" stroke="#AAAAAA" width="799.969" height="800.117"/>
		</g>
	</g>
	<g>
		<g>
			<defs>
				<rect id="SVGID_3_" x="-237.972" y="-250.976" width="800" height="799.937"/>
			</defs>
			<clipPath id="SVGID_4_">
				<use xlink:href="#SVGID_3_"  overflow="visible"/>
			</clipPath>
			<path clip-path="url(#SVGID_4_)" fill="#33BEF2" d="M118.949,260.818H68.907c0,10.297,8.399,15.441,25.203,15.441
				c7.721,0,15.442-0.728,23.164-2.185v15.297c-6.751,1.457-15.443,2.185-26.078,2.185c-27.729,0-41.593-13.037-41.593-39.115
				c0-24.912,12.699-37.366,38.097-37.366C113.049,215.075,123.465,230.324,118.949,260.818 M68.907,246.688h31.903
				c0.681-10.974-4.419-16.461-15.296-16.461C75.317,230.227,69.782,235.714,68.907,246.688"/>
		</g>
		<g>
			<defs>
				<rect id="SVGID_5_" x="-237.972" y="-250.976" width="800" height="799.937"/>
			</defs>
			<clipPath id="SVGID_6_">
				<use xlink:href="#SVGID_5_"  overflow="visible"/>
			</clipPath>
			<path clip-path="url(#SVGID_6_)" fill="#33BEF2" d="M129.573,187.395h19.303v31.322c5.776-2.427,11.729-3.643,17.847-3.643
				c23.696,0,35.547,12.236,35.547,36.713c0,26.514-12.941,39.771-38.824,39.771c-10.49,0-21.779-1.045-33.871-3.133
				L129.573,187.395L129.573,187.395z M148.875,273.857c4.418,1.408,9.542,2.111,15.369,2.111c12.625,0,18.939-8.23,18.939-24.693
				c0-13.449-5.514-20.176-16.535-20.176c-6.509,0-12.433,1.311-17.773,3.933V273.857z"/>
		</g>
		<g>
			<defs>
				<rect id="SVGID_7_" x="-237.972" y="-250.976" width="800" height="799.937"/>
			</defs>
			<clipPath id="SVGID_8_">
				<use xlink:href="#SVGID_7_"  overflow="visible"/>
			</clipPath>
			<polygon clip-path="url(#SVGID_8_)" fill="#33BEF2" points="29.711,215.075 16.591,266.865 -0.381,215.075 -19.243,215.075 
				-36.214,266.865 -49.335,215.075 -67.026,215.075 -47.65,291.559 -28.021,291.559 -9.811,238.752 8.397,291.559 28.025,291.559 
				47.401,215.075 			"/>
		</g>
		<g>
			<defs>
				<rect id="SVGID_9_" x="-237.972" y="-250.976" width="800" height="799.937"/>
			</defs>
			<clipPath id="SVGID_10_">
				<use xlink:href="#SVGID_9_"  overflow="visible"/>
			</clipPath>
			<path clip-path="url(#SVGID_10_)" fill="#8BC441" d="M390.057,260.818h-50.041c0,10.297,8.398,15.441,25.202,15.441
				c7.722,0,15.441-0.728,23.164-2.185v15.297c-6.751,1.457-15.442,2.185-26.077,2.185c-27.729,0-41.593-13.037-41.593-39.115
				c0-24.912,12.697-37.366,38.096-37.366C384.158,215.075,394.574,230.324,390.057,260.818 M340.016,246.688h31.904
				c0.68-10.974-4.421-16.461-15.298-16.461C346.427,230.227,340.89,235.714,340.016,246.688"/>
		</g>
		<g>
			<defs>
				<rect id="SVGID_11_" x="-237.972" y="-250.976" width="800" height="799.937"/>
			</defs>
			<clipPath id="SVGID_12_">
				<use xlink:href="#SVGID_11_"  overflow="visible"/>
			</clipPath>
			<polygon clip-path="url(#SVGID_12_)" fill="#8BC441" points="221.774,291.557 234.894,239.768 251.866,291.557 270.727,291.557 
				287.7,239.768 300.82,291.557 318.51,291.557 299.135,215.073 279.506,215.073 261.296,267.88 243.086,215.073 223.458,215.073 
				204.083,291.557 			"/>
		</g>
	</g>
</g>
<g id="Layer_2">
	<g>
		<polygon fill="#0083B3" points="51.269,6.428 6.175,6.428 59.721,151.646 82.3,90.672 		"/>
		<path fill="#0083B3" d="M103.118,147.188C102.748,147.484,103.507,146.917,103.118,147.188"/>
		<path fill="#8BC441" d="M232.5,6.428c-9.014,0-12.979,3.879-15.98,11.807l-26.824,72.438l20.816,56.517
			c3.467-2.403,5.202-5.105,6.723-9.105v-0.003L265.919,6.428H232.5z"/>
		<path fill="#8BC441" d="M197.524,151.646c4.463,0,9.579-2.101,12.986-4.459c-3.405,2.369-8.702,4.459-13.164,4.459H197.524z"/>
		<path fill="#33BEF2" d="M114.707,9.516c-2.401,1.959-4.111,4.846-5.582,8.719L82.301,90.671l-22.578,60.976h30.229h0.179
			c4.464,0,9.578-2.101,12.986-4.459c3.467-2.403,5.203-5.105,6.722-9.104v-0.003l26.177-70.778L114.707,9.516z"/>
		<polygon fill="#33BEF2" points="114.701,9.499 114.707,9.516 114.712,9.511 		"/>
		<path fill="#4DA74B" d="M266.032,6.428h-0.137h-33.42c-0.571,0-1.123,0.016-1.652,0.047c-0.104,0.006-0.196,0.02-0.298,0.027
			c-0.427,0.031-0.847,0.065-1.249,0.116c-0.076,0.01-0.146,0.025-0.223,0.036c-0.416,0.058-0.826,0.122-1.22,0.203
			c-0.046,0.009-0.088,0.023-0.134,0.033c-0.414,0.089-0.819,0.187-1.206,0.303c-0.021,0.006-0.041,0.014-0.063,0.021
			c-0.406,0.123-0.8,0.259-1.179,0.412c-0.004,0.001-0.007,0.003-0.01,0.004c-1.186,0.479-2.233,1.102-3.175,1.869l21.313,57.804
			l31.101,84.344h30.231c4.463,0,9.76-2.088,13.165-4.459l-20.816-56.516L266.032,6.428z"/>
		<path fill="#D5DD25" d="M158.663,6.428h-0.137h-33.419c-0.572,0-1.123,0.016-1.653,0.047c-0.104,0.006-0.196,0.02-0.298,0.027
			c-0.426,0.031-0.847,0.065-1.249,0.116c-0.076,0.01-0.146,0.025-0.222,0.036c-0.417,0.058-0.827,0.122-1.221,0.203
			c-0.046,0.009-0.088,0.023-0.134,0.033c-0.414,0.089-0.817,0.187-1.206,0.303c-0.021,0.006-0.041,0.014-0.063,0.021
			c-0.406,0.123-0.799,0.259-1.179,0.412c-0.004,0.001-0.007,0.003-0.01,0.004c-1.186,0.479-2.232,1.102-3.175,1.869l21.314,57.804
			l31.099,84.344h30.231c4.463,0,9.76-2.088,13.164-4.459l-20.815-56.516L158.663,6.428z"/>
	</g>
</g>
</svg>
